<svg width="20" height="20" viewBox="0 0 20 20" fill="none" xmlns="http://www.w3.org/2000/svg">
<path d="M11.2004 1.60002C11.2004 1.28176 11.074 0.97654 10.8489 0.751496C10.6239 0.526452 10.3187 0.400024 10.0004 0.400024C9.68213 0.400024 9.37691 0.526452 9.15186 0.751496C8.92682 0.97654 8.80039 1.28176 8.80039 1.60002V8.80002H1.60039C1.28213 8.80002 0.976906 8.92645 0.751862 9.1515C0.526819 9.37654 0.400391 9.68176 0.400391 10C0.400391 10.3183 0.526819 10.6235 0.751862 10.8486C0.976906 11.0736 1.28213 11.2 1.60039 11.2H8.80039V18.4C8.80039 18.7183 8.92682 19.0235 9.15186 19.2486C9.37691 19.4736 9.68213 19.6 10.0004 19.6C10.3187 19.6 10.6239 19.4736 10.8489 19.2486C11.074 19.0235 11.2004 18.7183 11.2004 18.4V11.2H18.4004C18.7186 11.2 19.0239 11.0736 19.2489 10.8486C19.474 10.6235 19.6004 10.3183 19.6004 10C19.6004 9.68176 19.474 9.37654 19.2489 9.1515C19.0239 8.92645 18.7186 8.80002 18.4004 8.80002H11.2004V1.60002Z" fill="#EA1563"/>
</svg>
