<svg width="24" height="24" viewBox="0 0 24 24" fill="none" xmlns="http://www.w3.org/2000/svg">
<path d="M14.0613 18.4421C14.6473 19.0281 14.6473 19.9781 14.0613 20.564C13.4754 21.1499 12.5254 21.1499 11.9395 20.564C11.3535 19.9781 11.3535 19.0281 11.9395 18.4421C12.2208 18.1606 12.6024 18.0024 13.0004 18.0024C13.3984 18.0024 13.78 18.1606 14.0613 18.4421" stroke="#6C6064" stroke-width="2" stroke-linecap="round" stroke-linejoin="round"/>
<path d="M19.5633 17.4418C20.1492 18.0277 20.1492 18.9777 19.5633 19.5636C18.9773 20.1496 18.0273 20.1496 17.4414 19.5636C16.8555 18.9777 16.8555 18.0277 17.4414 17.4418C17.7227 17.1602 18.1044 17.0021 18.5023 17.0021C18.9003 17.0021 19.282 17.1602 19.5633 17.4418" stroke="#6C6064" stroke-width="2" stroke-linecap="round" stroke-linejoin="round"/>
<path d="M3.99613 18.0025V18.0025C3.99172 16.9398 4.41189 15.9194 5.16332 15.168C5.91474 14.4165 6.93517 13.9964 7.99783 14.0008H11.1102" stroke="#6C6064" stroke-width="2" stroke-linecap="round" stroke-linejoin="round"/>
<circle cx="10.9978" cy="6.99788" r="4.00167" stroke="#6C6064" stroke-width="2" stroke-linecap="round" stroke-linejoin="round"/>
<path d="M14.5 19.3725V14.9018C14.4998 14.4927 14.7491 14.1248 15.1293 13.9734L18.6307 12.5729C18.9388 12.4495 19.288 12.4871 19.5629 12.6731C19.8377 12.8591 20.0023 13.1694 20.0023 13.5013V18.3528" stroke="#6C6064" stroke-width="2" stroke-linecap="round" stroke-linejoin="round"/>
</svg>
