<svg width="24" height="24" viewBox="0 0 24 24" fill="none" xmlns="http://www.w3.org/2000/svg">
<path d="M14.0613 18.4421C14.6473 19.0281 14.6473 19.9781 14.0613 20.564C13.4754 21.1499 12.5254 21.1499 11.9395 20.564C11.3535 19.9781 11.3535 19.0281 11.9395 18.4421C12.2208 18.1606 12.6024 18.0024 13.0004 18.0024C13.3984 18.0024 13.78 18.1606 14.0613 18.4421" stroke="#A50F46" stroke-width="2" stroke-linecap="round" stroke-linejoin="round"/>
<path d="M19.5633 17.4421C20.1492 18.0281 20.1492 18.9781 19.5633 19.564C18.9773 20.1499 18.0273 20.1499 17.4414 19.564C16.8555 18.9781 16.8555 18.0281 17.4414 17.4421C17.7227 17.1606 18.1044 17.0024 18.5023 17.0024C18.9003 17.0024 19.282 17.1606 19.5633 17.4421" stroke="#A50F46" stroke-width="2" stroke-linecap="round" stroke-linejoin="round"/>
<path d="M3.99613 18.0027V18.0027C3.99172 16.94 4.41189 15.9196 5.16332 15.1682C5.91474 14.4168 6.93517 13.9966 7.99783 14.001H11.1102" stroke="#A50F46" stroke-width="2" stroke-linecap="round" stroke-linejoin="round"/>
<circle cx="10.9978" cy="6.99825" r="4.00167" stroke="#A50F46" stroke-width="2" stroke-linecap="round" stroke-linejoin="round"/>
<path d="M14.5 19.3727V14.9021C14.4998 14.4929 14.7491 14.125 15.1293 13.9737L18.6307 12.5731C18.9388 12.4498 19.288 12.4873 19.5629 12.6733C19.8377 12.8594 20.0023 13.1696 20.0023 13.5015V18.3531" stroke="#A50F46" stroke-width="2" stroke-linecap="round" stroke-linejoin="round"/>
</svg>
