<svg width="24" height="24" viewBox="0 0 24 24" fill="none" xmlns="http://www.w3.org/2000/svg">
<path d="M12.0002 5.49714C12.2765 5.49714 12.5004 5.72109 12.5004 5.99735C12.5004 6.27361 12.2765 6.49756 12.0002 6.49756C11.724 6.49756 11.5 6.27361 11.5 5.99735C11.5 5.72109 11.724 5.49714 12.0002 5.49714" stroke="white" stroke-width="1.5" stroke-linecap="round" stroke-linejoin="round"/>
<path d="M12.0002 11.4996C12.2765 11.4996 12.5004 11.7235 12.5004 11.9998C12.5004 12.276 12.2765 12.5 12.0002 12.5C11.724 12.5 11.5 12.276 11.5 11.9998C11.5 11.7235 11.724 11.4996 12.0002 11.4996" stroke="white" stroke-width="1.5" stroke-linecap="round" stroke-linejoin="round"/>
<path d="M12.0002 17.5023C12.2765 17.5023 12.5004 17.7262 12.5004 18.0025C12.5004 18.2787 12.2765 18.5027 12.0002 18.5027C11.724 18.5027 11.5 18.2787 11.5 18.0025C11.5 17.7262 11.724 17.5023 12.0002 17.5023" stroke="white" stroke-width="1.5" stroke-linecap="round" stroke-linejoin="round"/>
</svg>
