<svg width="32" height="32" viewBox="0 0 32 32" fill="none" xmlns="http://www.w3.org/2000/svg">
<path fill-rule="evenodd" clip-rule="evenodd" d="M4.66 17.9534L6.25333 20.0387L6.59733 22.6347C6.788 24.0747 7.92 25.208 9.36 25.4L11.9627 25.748L14.0467 27.34C15.2 28.2214 16.7987 28.2214 17.952 27.34L20.0373 25.7467H20.0347L22.632 25.4027C24.072 25.212 25.2053 24.08 25.3973 22.64L25.744 20.0374C25.744 20.0387 26.5493 18.984 27.3373 17.9534C28.2187 16.8 28.2173 15.2014 27.3373 14.048L25.7467 11.9614L25.4027 9.36537C25.212 7.92537 24.08 6.79203 22.64 6.60003L20.036 6.25337L17.952 4.66137C16.7987 3.78003 15.2 3.78003 14.0467 4.66137L11.9613 6.25337H11.964L9.36667 6.5987C7.92667 6.78937 6.79333 7.92137 6.60133 9.36137L6.25333 11.964C6.25333 11.9627 5.448 13.0174 4.66 14.048C3.78 15.2 3.78 16.8 4.66 17.9534V17.9534Z" stroke="#A50F46" stroke-width="1.5" stroke-linecap="round" stroke-linejoin="round"/>
<path d="M19.7376 14.136L15.0696 18.804L12.2656 16.0027" stroke="#A50F46" stroke-width="1.5" stroke-linecap="round" stroke-linejoin="round"/>
</svg>
