<svg width="24" height="24" viewBox="0 0 24 24" fill="none" xmlns="http://www.w3.org/2000/svg">
<path d="M18.5024 12.0002C18.5024 12.2765 18.2784 12.5004 18.0022 12.5004C17.7259 12.5004 17.502 12.2765 17.502 12.0002C17.502 11.724 17.7259 11.5 18.0022 11.5C18.2784 11.5 18.5024 11.724 18.5024 12.0002" stroke="white" stroke-width="1.5" stroke-linecap="round" stroke-linejoin="round"/>
<path d="M12.5004 12.0002C12.5004 12.2765 12.2765 12.5004 12.0002 12.5004C11.724 12.5004 11.5 12.2765 11.5 12.0002C11.5 11.724 11.724 11.5 12.0002 11.5C12.2765 11.5 12.5004 11.724 12.5004 12.0002" stroke="white" stroke-width="1.5" stroke-linecap="round" stroke-linejoin="round"/>
<path d="M6.49749 12.0002C6.49749 12.2765 6.27354 12.5004 5.99728 12.5004C5.72102 12.5004 5.49707 12.2765 5.49707 12.0002C5.49707 11.724 5.72102 11.5 5.99728 11.5C6.27354 11.5 6.49749 11.724 6.49749 12.0002" stroke="white" stroke-width="1.5" stroke-linecap="round" stroke-linejoin="round"/>
</svg>
