<svg width="24" height="24" viewBox="0 0 24 24" fill="none" xmlns="http://www.w3.org/2000/svg">
<path d="M15.6494 19.3699L14.9872 18.9875C14.5337 18.7257 14.2028 18.2945 14.0673 17.7887C13.9318 17.2829 14.0027 16.744 14.2645 16.2906L16.2801 12.7994C16.5419 12.3459 16.9732 12.0151 17.4789 11.8795C17.9847 11.744 18.5236 11.815 18.9771 12.0768L19.6394 12.4591" stroke="white" stroke-width="1.5" stroke-linecap="round" stroke-linejoin="round"/>
<path fill-rule="evenodd" clip-rule="evenodd" d="M16.0145 20.7324V20.7324C15.5374 20.4569 15.374 19.8469 15.6494 19.3698L19.6393 12.4591C19.9148 11.982 20.5248 11.8185 21.0019 12.094V12.094C21.4601 12.3585 21.7945 12.7943 21.9314 13.3053C22.0684 13.8164 21.9967 14.3609 21.7321 14.8191L18.7397 20.0022C18.1888 20.9564 16.9687 21.2833 16.0145 20.7324Z" stroke="white" stroke-width="1.5" stroke-linecap="round" stroke-linejoin="round"/>
<path d="M8.34932 19.3699L9.01157 18.9875C9.46503 18.7257 9.79593 18.2945 9.93145 17.7887C10.067 17.2829 9.99603 16.744 9.73422 16.2906L7.71862 12.7994C7.4568 12.3459 7.02557 12.0151 6.51978 11.8795C6.01399 11.744 5.47509 11.815 5.02162 12.0768L4.35938 12.4591" stroke="white" stroke-width="1.5" stroke-linecap="round" stroke-linejoin="round"/>
<path fill-rule="evenodd" clip-rule="evenodd" d="M2.99723 12.094V12.094C3.47432 11.8185 4.08437 11.982 4.35982 12.4591L8.34974 19.3698C8.62519 19.8469 8.46173 20.457 7.98464 20.7324V20.7324C7.52643 20.9969 6.9819 21.0686 6.47083 20.9317C5.95977 20.7948 5.52403 20.4604 5.25949 20.0022L2.26703 14.8191C2.00248 14.3609 1.93079 13.8164 2.06773 13.3053C2.20467 12.7942 2.53903 12.3585 2.99725 12.0939L2.99723 12.094Z" stroke="white" stroke-width="1.5" stroke-linecap="round" stroke-linejoin="round"/>
<path d="M21.0072 12.094V11.0075C21.0072 8.61858 20.0582 6.32748 18.369 4.63824C16.6798 2.949 14.3887 2 11.9997 2V2C9.61076 2 7.31966 2.94901 5.63043 4.63825C3.94119 6.32748 2.99218 8.61859 2.99219 11.0075V12.094" stroke="white" stroke-width="1.5" stroke-linecap="round" stroke-linejoin="round"/>
</svg>
