<svg width="24" height="24" viewBox="0 0 24 24" fill="none" xmlns="http://www.w3.org/2000/svg">
<path d="M18.5024 12C18.5024 12.2763 18.2784 12.5002 18.0022 12.5002C17.7259 12.5002 17.502 12.2763 17.502 12C17.502 11.7237 17.7259 11.4998 18.0022 11.4998C18.2784 11.4998 18.5024 11.7237 18.5024 12" stroke="white" stroke-width="1.5" stroke-linecap="round" stroke-linejoin="round"/>
<path d="M12.4985 12C12.4985 12.2763 12.2745 12.5002 11.9983 12.5002C11.722 12.5002 11.498 12.2763 11.498 12C11.498 11.7237 11.722 11.4998 11.9983 11.4998C12.2745 11.4998 12.4985 11.7237 12.4985 12" stroke="white" stroke-width="1.5" stroke-linecap="round" stroke-linejoin="round"/>
<path d="M6.49651 12C6.49651 12.2763 6.27256 12.5002 5.9963 12.5002C5.72004 12.5002 5.49609 12.2763 5.49609 12C5.49609 11.7237 5.72004 11.4998 5.9963 11.4998C6.27256 11.4998 6.49651 11.7237 6.49651 12" stroke="white" stroke-width="1.5" stroke-linecap="round" stroke-linejoin="round"/>
</svg>
